<mxfile host="app.diagrams.net" modified="2023-11-12T22:39:47.739Z" agent="Mozilla/5.0 (Windows NT 10.0; Win64; x64) AppleWebKit/537.36 (KHTML, like Gecko) Chrome/116.0.0.0 Safari/537.36 OPR/102.0.0.0" etag="2CLOHx-2VcFIgkf3UvOs" version="22.1.0" type="device">
  <diagram name="Page-1" id="2YYaM9tgKMrkk3zaCKsq">
    <mxGraphModel dx="3711" dy="664" grid="1" gridSize="10" guides="1" tooltips="1" connect="1" arrows="1" fold="1" page="1" pageScale="1" pageWidth="850" pageHeight="1100" math="0" shadow="0">
      <root>
        <mxCell id="0" />
        <mxCell id="1" parent="0" />
        <mxCell id="FVjMAxVA79Mbzfy4P1aw-2" value="" style="html=1;jettySize=18;whiteSpace=wrap;fontSize=13;strokeColor=#3a414a;strokeOpacity=100;strokeWidth=0.8;rounded=1;arcSize=12;edgeStyle=orthogonalEdgeStyle;startArrow=none;endArrow=block;endFill=1;entryX=0.5;entryY=-0.004;entryPerimeter=0;lucidId=NDAMkyehcCbV;" edge="1" parent="1" source="FVjMAxVA79Mbzfy4P1aw-157">
          <mxGeometry width="100" height="100" relative="1" as="geometry">
            <Array as="points" />
            <mxPoint x="-22" y="-39.6400000000001" as="sourcePoint" />
            <mxPoint x="-22.5" y="284.64" as="targetPoint" />
          </mxGeometry>
        </mxCell>
        <mxCell id="FVjMAxVA79Mbzfy4P1aw-4" value="" style="html=1;jettySize=18;whiteSpace=wrap;fontSize=13;strokeColor=#3a414a;strokeOpacity=100;strokeWidth=0.8;rounded=1;arcSize=12;edgeStyle=orthogonalEdgeStyle;startArrow=none;endArrow=block;endFill=1;exitX=1.003;exitY=0.5;exitPerimeter=0;entryX=0.011;entryY=0.5;entryPerimeter=0;lucidId=U4AMy.XNye-B;" edge="1" parent="1" target="FVjMAxVA79Mbzfy4P1aw-5">
          <mxGeometry width="100" height="100" relative="1" as="geometry">
            <Array as="points" />
            <mxPoint x="52.94999999999982" y="330" as="sourcePoint" />
          </mxGeometry>
        </mxCell>
        <mxCell id="FVjMAxVA79Mbzfy4P1aw-5" value="User already have a account?" style="html=1;overflow=block;blockSpacing=1;whiteSpace=wrap;rhombus;fontSize=16.7;fontColor=#3a414a;spacing=3.8;strokeColor=#3a414a;strokeOpacity=100;rounded=1;absoluteArcSize=1;arcSize=9;strokeWidth=0.8;lucidId=d5AMsbfVRP2W;" vertex="1" parent="1">
          <mxGeometry x="130" y="251" width="187.5" height="158" as="geometry" />
        </mxCell>
        <mxCell id="FVjMAxVA79Mbzfy4P1aw-6" value="" style="html=1;jettySize=18;whiteSpace=wrap;fontSize=13;strokeColor=#3a414a;strokeOpacity=100;strokeWidth=0.8;rounded=1;arcSize=12;edgeStyle=orthogonalEdgeStyle;startArrow=none;endArrow=block;endFill=1;exitX=0.989;exitY=0.5;exitPerimeter=0;lucidId=f6AMC2GnVKTv;" edge="1" parent="1" source="FVjMAxVA79Mbzfy4P1aw-5" target="FVjMAxVA79Mbzfy4P1aw-131">
          <mxGeometry width="100" height="100" relative="1" as="geometry">
            <Array as="points" />
          </mxGeometry>
        </mxCell>
        <mxCell id="FVjMAxVA79Mbzfy4P1aw-7" value="" style="html=1;jettySize=18;whiteSpace=wrap;fontSize=13;strokeColor=#3a414a;strokeOpacity=100;strokeWidth=0.8;rounded=1;arcSize=12;edgeStyle=orthogonalEdgeStyle;startArrow=none;endArrow=block;endFill=1;exitX=0.5;exitY=0.991;exitPerimeter=0;entryX=1.003;entryY=0.5;entryPerimeter=0;lucidId=v6AMmjYsEmZk;" edge="1" parent="1" source="FVjMAxVA79Mbzfy4P1aw-5" target="FVjMAxVA79Mbzfy4P1aw-11">
          <mxGeometry width="100" height="100" relative="1" as="geometry">
            <Array as="points">
              <mxPoint x="225" y="510" />
            </Array>
          </mxGeometry>
        </mxCell>
        <mxCell id="FVjMAxVA79Mbzfy4P1aw-8" value="&amp;nbsp;Main Store page" style="html=1;overflow=block;blockSpacing=1;whiteSpace=wrap;fontSize=16.7;fontColor=#3a414a;spacing=9;strokeColor=#3a414a;strokeOpacity=100;rounded=1;absoluteArcSize=1;arcSize=9;strokeWidth=0.8;lucidId=r7AM0aVnmrhW;" vertex="1" parent="1">
          <mxGeometry x="585" y="281" width="225" height="98" as="geometry" />
        </mxCell>
        <mxCell id="FVjMAxVA79Mbzfy4P1aw-9" value="Yes" style="html=1;overflow=block;blockSpacing=1;whiteSpace=wrap;fontSize=16.7;fontColor=#3a414a;spacing=3.8;strokeOpacity=0;fillOpacity=0;rounded=1;absoluteArcSize=1;arcSize=9;fillColor=#ffffff;strokeWidth=0.8;lucidId=A7AM4fqxRnl4;" vertex="1" parent="1">
          <mxGeometry x="330" y="300" width="45" height="45" as="geometry" />
        </mxCell>
        <mxCell id="FVjMAxVA79Mbzfy4P1aw-10" value="No" style="html=1;overflow=block;blockSpacing=1;whiteSpace=wrap;fontSize=16.7;fontColor=#3a414a;spacing=3.8;strokeOpacity=0;fillOpacity=0;rounded=1;absoluteArcSize=1;arcSize=9;fillColor=#ffffff;strokeWidth=0.8;lucidId=E8AMan3YzI0u;" vertex="1" parent="1">
          <mxGeometry x="180" y="437.5" width="45" height="45" as="geometry" />
        </mxCell>
        <mxCell id="FVjMAxVA79Mbzfy4P1aw-11" value="Re-direct user to sign up page" style="html=1;overflow=block;blockSpacing=1;whiteSpace=wrap;fontSize=16.7;fontColor=#3a414a;spacing=9;strokeColor=#3a414a;strokeOpacity=100;rounded=1;absoluteArcSize=1;arcSize=9;strokeWidth=0.8;lucidId=w.AMLtJbKQsE;" vertex="1" parent="1">
          <mxGeometry x="-74.5" y="465" width="120" height="90" as="geometry" />
        </mxCell>
        <mxCell id="FVjMAxVA79Mbzfy4P1aw-12" value="" style="html=1;jettySize=18;whiteSpace=wrap;fontSize=13;strokeColor=#3a414a;strokeOpacity=100;strokeWidth=0.8;rounded=1;arcSize=12;edgeStyle=orthogonalEdgeStyle;startArrow=none;endArrow=block;endFill=1;exitX=-0.003;exitY=0.5;exitPerimeter=0;lucidId=qaBM4oEUxfHm;" edge="1" parent="1" source="FVjMAxVA79Mbzfy4P1aw-11">
          <mxGeometry width="100" height="100" relative="1" as="geometry">
            <Array as="points" />
            <mxPoint x="-199.5" y="510" as="targetPoint" />
          </mxGeometry>
        </mxCell>
        <mxCell id="FVjMAxVA79Mbzfy4P1aw-13" value=" user input username already exist in database?  " style="html=1;overflow=block;blockSpacing=1;whiteSpace=wrap;rhombus;fontSize=16.7;fontColor=#3a414a;spacing=3.8;strokeColor=#3a414a;strokeOpacity=100;rounded=1;absoluteArcSize=1;arcSize=9;strokeWidth=0.8;lucidId=ObBMIJOAKKhq;" vertex="1" parent="1">
          <mxGeometry x="-606.12" y="433.25" width="253.25" height="154.5" as="geometry" />
        </mxCell>
        <mxCell id="FVjMAxVA79Mbzfy4P1aw-14" value="" style="html=1;jettySize=18;whiteSpace=wrap;fontSize=13;strokeColor=#3a414a;strokeOpacity=100;strokeWidth=0.8;rounded=1;arcSize=12;edgeStyle=orthogonalEdgeStyle;startArrow=none;endArrow=block;endFill=1;exitX=0.097;exitY=0.5;exitPerimeter=0;entryX=0.99;entryY=0.5;entryPerimeter=0;lucidId=UbBMp.KpTMMO;" edge="1" parent="1" source="FVjMAxVA79Mbzfy4P1aw-30" target="FVjMAxVA79Mbzfy4P1aw-13">
          <mxGeometry width="100" height="100" relative="1" as="geometry">
            <Array as="points" />
          </mxGeometry>
        </mxCell>
        <mxCell id="FVjMAxVA79Mbzfy4P1aw-15" value="Display&quot;Username already exist&quot;" style="html=1;overflow=block;blockSpacing=1;whiteSpace=wrap;shape=display;fontSize=16.7;fontColor=#3a414a;spacing=3.8;strokeColor=#3a414a;strokeOpacity=100;rounded=1;absoluteArcSize=1;arcSize=9;strokeWidth=0.8;lucidId=foBMgscxd5w1;size=0.16985138004246284;" vertex="1" parent="1">
          <mxGeometry x="-597.25" y="945" width="235.5" height="90" as="geometry" />
        </mxCell>
        <mxCell id="FVjMAxVA79Mbzfy4P1aw-16" value="" style="html=1;jettySize=18;whiteSpace=wrap;fontSize=13;strokeColor=#3a414a;strokeOpacity=100;strokeWidth=0.8;rounded=1;arcSize=12;edgeStyle=orthogonalEdgeStyle;startArrow=none;endArrow=block;endFill=1;exitX=0.5;exitY=0.993;exitPerimeter=0;entryX=0.5;entryY=-0.004;entryPerimeter=0;lucidId=-qBM_4T98oLG;" edge="1" parent="1" source="FVjMAxVA79Mbzfy4P1aw-13" target="FVjMAxVA79Mbzfy4P1aw-51">
          <mxGeometry width="100" height="100" relative="1" as="geometry">
            <Array as="points" />
          </mxGeometry>
        </mxCell>
        <mxCell id="FVjMAxVA79Mbzfy4P1aw-17" value="" style="html=1;jettySize=18;whiteSpace=wrap;fontSize=13;strokeColor=#3a414a;strokeOpacity=100;strokeWidth=0.8;rounded=1;arcSize=12;edgeStyle=orthogonalEdgeStyle;startArrow=none;endArrow=block;endFill=1;exitX=0.5;exitY=1.004;exitPerimeter=0;entryX=0.5;entryY=-0.004;entryPerimeter=0;lucidId=guCM_AOdZHj8;" edge="1" parent="1" source="FVjMAxVA79Mbzfy4P1aw-51" target="FVjMAxVA79Mbzfy4P1aw-15">
          <mxGeometry width="100" height="100" relative="1" as="geometry">
            <Array as="points" />
          </mxGeometry>
        </mxCell>
        <mxCell id="FVjMAxVA79Mbzfy4P1aw-18" value="user input email already exist in database?  " style="html=1;overflow=block;blockSpacing=1;whiteSpace=wrap;rhombus;fontSize=16.7;fontColor=#3a414a;spacing=3.8;strokeColor=#3a414a;strokeOpacity=100;rounded=1;absoluteArcSize=1;arcSize=9;strokeWidth=0.8;lucidId=SxBMsdviHMuU;" vertex="1" parent="1">
          <mxGeometry x="-1253.75" y="424.25" width="284.5" height="172.5" as="geometry" />
        </mxCell>
        <mxCell id="FVjMAxVA79Mbzfy4P1aw-19" value="" style="html=1;jettySize=18;whiteSpace=wrap;fontSize=13;strokeColor=#3a414a;strokeOpacity=100;strokeWidth=0.8;rounded=1;arcSize=12;edgeStyle=orthogonalEdgeStyle;startArrow=none;endArrow=block;endFill=1;exitX=0.5;exitY=1.004;exitPerimeter=0;lucidId=MyBMoYDC3v7M;" edge="1" parent="1" source="FVjMAxVA79Mbzfy4P1aw-15">
          <mxGeometry width="100" height="100" relative="1" as="geometry">
            <Array as="points" />
            <mxPoint x="-479.5" y="1110" as="targetPoint" />
          </mxGeometry>
        </mxCell>
        <mxCell id="FVjMAxVA79Mbzfy4P1aw-20" value="Display&quot;email already exist&quot;" style="html=1;overflow=block;blockSpacing=1;whiteSpace=wrap;shape=display;fontSize=16.7;fontColor=#3a414a;spacing=3.8;strokeColor=#3a414a;strokeOpacity=100;rounded=1;absoluteArcSize=1;arcSize=9;strokeWidth=0.8;lucidId=DBBMfgEoZ-ea;" vertex="1" parent="1">
          <mxGeometry x="-1216.5" y="945" width="210" height="90" as="geometry" />
        </mxCell>
        <mxCell id="FVjMAxVA79Mbzfy4P1aw-21" value="" style="html=1;jettySize=18;whiteSpace=wrap;fontSize=13;strokeColor=#3a414a;strokeOpacity=100;strokeWidth=0.8;rounded=1;arcSize=12;edgeStyle=orthogonalEdgeStyle;startArrow=none;endArrow=block;endFill=1;exitX=0.5;exitY=1.004;exitPerimeter=0;entryX=0.5;entryY=-0.004;entryPerimeter=0;lucidId=vtCM5qP1iwNO;" edge="1" parent="1" source="FVjMAxVA79Mbzfy4P1aw-50" target="FVjMAxVA79Mbzfy4P1aw-20">
          <mxGeometry width="100" height="100" relative="1" as="geometry">
            <Array as="points" />
          </mxGeometry>
        </mxCell>
        <mxCell id="FVjMAxVA79Mbzfy4P1aw-22" value="" style="html=1;jettySize=18;whiteSpace=wrap;fontSize=13;strokeColor=#3a414a;strokeOpacity=100;strokeWidth=0.8;rounded=1;arcSize=12;edgeStyle=orthogonalEdgeStyle;startArrow=none;endArrow=block;endFill=1;exitX=0.5;exitY=0.993;exitPerimeter=0;entryX=0.5;entryY=-0.004;entryPerimeter=0;lucidId=KBBM3m23EMTU;" edge="1" parent="1" source="FVjMAxVA79Mbzfy4P1aw-18" target="FVjMAxVA79Mbzfy4P1aw-50">
          <mxGeometry width="100" height="100" relative="1" as="geometry">
            <Array as="points" />
          </mxGeometry>
        </mxCell>
        <mxCell id="FVjMAxVA79Mbzfy4P1aw-23" value="" style="html=1;jettySize=18;whiteSpace=wrap;fontSize=13;strokeColor=#3a414a;strokeOpacity=100;strokeWidth=0.8;rounded=1;arcSize=12;edgeStyle=orthogonalEdgeStyle;startArrow=none;endArrow=block;endFill=1;exitX=0.5;exitY=1.004;exitPerimeter=0;entryX=0.5;entryY=-0.004;entryPerimeter=0;lucidId=WBBMQcAc.tE9;" edge="1" parent="1" source="FVjMAxVA79Mbzfy4P1aw-20" target="FVjMAxVA79Mbzfy4P1aw-28">
          <mxGeometry width="100" height="100" relative="1" as="geometry">
            <Array as="points" />
          </mxGeometry>
        </mxCell>
        <mxCell id="FVjMAxVA79Mbzfy4P1aw-24" value="" style="html=1;jettySize=18;whiteSpace=wrap;fontSize=13;strokeColor=#3a414a;strokeOpacity=100;strokeWidth=0.8;rounded=1;arcSize=12;edgeStyle=orthogonalEdgeStyle;startArrow=none;endArrow=block;endFill=1;exitX=0.903;exitY=0.5;exitPerimeter=0;entryX=0.99;entryY=0.5;entryPerimeter=0;lucidId=8CBM.-NUbaxJ;" edge="1" parent="1" source="FVjMAxVA79Mbzfy4P1aw-29" target="FVjMAxVA79Mbzfy4P1aw-13">
          <mxGeometry width="100" height="100" relative="1" as="geometry">
            <Array as="points">
              <mxPoint x="-340" y="1155" />
              <mxPoint x="-340" y="510" />
            </Array>
          </mxGeometry>
        </mxCell>
        <mxCell id="FVjMAxVA79Mbzfy4P1aw-25" value="" style="html=1;jettySize=18;whiteSpace=wrap;fontSize=13;strokeColor=#3a414a;strokeOpacity=100;strokeWidth=0.8;rounded=1;arcSize=12;edgeStyle=orthogonalEdgeStyle;startArrow=none;endArrow=block;endFill=1;exitX=0.5;exitY=1.004;exitPerimeter=0;entryX=0.99;entryY=0.5;entryPerimeter=0;lucidId=sDBMYnS0at1I;" edge="1" parent="1" source="FVjMAxVA79Mbzfy4P1aw-28" target="FVjMAxVA79Mbzfy4P1aw-13">
          <mxGeometry width="100" height="100" relative="1" as="geometry">
            <Array as="points">
              <mxPoint x="-1111" y="1260" />
              <mxPoint x="-340" y="1260" />
              <mxPoint x="-340" y="510" />
            </Array>
          </mxGeometry>
        </mxCell>
        <mxCell id="FVjMAxVA79Mbzfy4P1aw-26" value="" style="html=1;jettySize=18;whiteSpace=wrap;fontSize=13;strokeColor=#3a414a;strokeOpacity=100;strokeWidth=0.8;rounded=1;arcSize=12;edgeStyle=orthogonalEdgeStyle;startArrow=none;endArrow=block;endFill=1;exitX=0.097;exitY=0.5;exitPerimeter=0;entryX=0.903;entryY=0.5;entryPerimeter=0;lucidId=7JBMGrOMKU.g;" edge="1" parent="1" source="FVjMAxVA79Mbzfy4P1aw-33" target="FVjMAxVA79Mbzfy4P1aw-37">
          <mxGeometry width="100" height="100" relative="1" as="geometry">
            <Array as="points" />
          </mxGeometry>
        </mxCell>
        <mxCell id="FVjMAxVA79Mbzfy4P1aw-27" value="Display&quot;Password  doesn&#39;t match&quot;" style="html=1;overflow=block;blockSpacing=1;whiteSpace=wrap;shape=display;fontSize=16.7;fontColor=#3a414a;spacing=3.8;strokeColor=#3a414a;strokeOpacity=100;rounded=1;absoluteArcSize=1;arcSize=9;strokeWidth=0.8;lucidId=.JBMiIPDqN~6;" vertex="1" parent="1">
          <mxGeometry x="-2125" y="660" width="245" height="90" as="geometry" />
        </mxCell>
        <mxCell id="FVjMAxVA79Mbzfy4P1aw-28" value="Re-type email" style="html=1;overflow=block;blockSpacing=1;whiteSpace=wrap;shape=parallelogram;perimeter=parallelogramPerimeter;anchorPointDirection=0;fontSize=16.7;fontColor=#3a414a;spacing=3.8;strokeColor=#3a414a;strokeOpacity=100;rounded=1;absoluteArcSize=1;arcSize=9;strokeWidth=0.8;lucidId=lMBMo-xPpaJw;" vertex="1" parent="1">
          <mxGeometry x="-1171.5" y="1110" width="120" height="90" as="geometry" />
        </mxCell>
        <mxCell id="FVjMAxVA79Mbzfy4P1aw-29" value="Re-type username" style="html=1;overflow=block;blockSpacing=1;whiteSpace=wrap;shape=parallelogram;perimeter=parallelogramPerimeter;anchorPointDirection=0;fontSize=16.7;fontColor=#3a414a;spacing=3.8;strokeColor=#3a414a;strokeOpacity=100;rounded=1;absoluteArcSize=1;arcSize=9;strokeWidth=0.8;lucidId=FMBMTNyAvW__;" vertex="1" parent="1">
          <mxGeometry x="-539.5" y="1110" width="120" height="90" as="geometry" />
        </mxCell>
        <mxCell id="FVjMAxVA79Mbzfy4P1aw-30" value="Input username" style="html=1;overflow=block;blockSpacing=1;whiteSpace=wrap;shape=parallelogram;perimeter=parallelogramPerimeter;anchorPointDirection=0;fontSize=16.7;fontColor=#3a414a;spacing=3.8;strokeColor=#3a414a;strokeOpacity=100;rounded=1;absoluteArcSize=1;arcSize=9;strokeWidth=0.8;lucidId=cNBMJkkHjsJo;" vertex="1" parent="1">
          <mxGeometry x="-277.5" y="465" width="120" height="90" as="geometry" />
        </mxCell>
        <mxCell id="FVjMAxVA79Mbzfy4P1aw-31" value="Input email" style="html=1;overflow=block;blockSpacing=1;whiteSpace=wrap;shape=parallelogram;perimeter=parallelogramPerimeter;anchorPointDirection=0;fontSize=16.7;fontColor=#3a414a;spacing=3.8;strokeColor=#3a414a;strokeOpacity=100;rounded=1;absoluteArcSize=1;arcSize=9;strokeWidth=0.8;lucidId=wOBMvvJ3qeP7;" vertex="1" parent="1">
          <mxGeometry x="-936.5" y="465" width="120" height="90" as="geometry" />
        </mxCell>
        <mxCell id="FVjMAxVA79Mbzfy4P1aw-32" value="" style="html=1;jettySize=18;whiteSpace=wrap;fontSize=13;strokeColor=#3a414a;strokeOpacity=100;strokeWidth=0.8;rounded=1;arcSize=12;edgeStyle=orthogonalEdgeStyle;startArrow=none;endArrow=block;endFill=1;exitX=0.097;exitY=0.5;exitPerimeter=0;entryX=0.99;entryY=0.5;entryPerimeter=0;lucidId=hPBMC~eGiBwE;" edge="1" parent="1" source="FVjMAxVA79Mbzfy4P1aw-31" target="FVjMAxVA79Mbzfy4P1aw-18">
          <mxGeometry width="100" height="100" relative="1" as="geometry">
            <Array as="points" />
          </mxGeometry>
        </mxCell>
        <mxCell id="FVjMAxVA79Mbzfy4P1aw-33" value="Input Password" style="html=1;overflow=block;blockSpacing=1;whiteSpace=wrap;shape=parallelogram;perimeter=parallelogramPerimeter;anchorPointDirection=0;fontSize=16.7;fontColor=#3a414a;spacing=3.8;strokeColor=#3a414a;strokeOpacity=100;rounded=1;absoluteArcSize=1;arcSize=9;strokeWidth=0.8;lucidId=N8BMAcdb-v-Y;" vertex="1" parent="1">
          <mxGeometry x="-1642.5" y="465" width="120" height="90" as="geometry" />
        </mxCell>
        <mxCell id="FVjMAxVA79Mbzfy4P1aw-34" value="" style="html=1;jettySize=18;whiteSpace=wrap;fontSize=13;strokeColor=#3a414a;strokeOpacity=100;strokeWidth=0.8;rounded=1;arcSize=12;edgeStyle=orthogonalEdgeStyle;startArrow=none;endArrow=block;endFill=1;exitX=-0.004;exitY=0.5;exitPerimeter=0;entryX=0.903;entryY=0.5;entryPerimeter=0;lucidId=ZzCMZRKtNrox;" edge="1" parent="1" source="FVjMAxVA79Mbzfy4P1aw-55" target="FVjMAxVA79Mbzfy4P1aw-33">
          <mxGeometry width="100" height="100" relative="1" as="geometry">
            <Array as="points" />
          </mxGeometry>
        </mxCell>
        <mxCell id="FVjMAxVA79Mbzfy4P1aw-35" value="" style="html=1;jettySize=18;whiteSpace=wrap;fontSize=13;strokeColor=#3a414a;strokeOpacity=100;strokeWidth=0.8;rounded=1;arcSize=12;edgeStyle=orthogonalEdgeStyle;startArrow=none;endArrow=block;endFill=1;exitX=0.01;exitY=0.5;exitPerimeter=0;entryX=1.004;entryY=0.5;entryPerimeter=0;lucidId=.8BMSfljNY9j;" edge="1" parent="1" source="FVjMAxVA79Mbzfy4P1aw-18" target="FVjMAxVA79Mbzfy4P1aw-55">
          <mxGeometry width="100" height="100" relative="1" as="geometry">
            <Array as="points" />
          </mxGeometry>
        </mxCell>
        <mxCell id="FVjMAxVA79Mbzfy4P1aw-36" value="No" style="text;html=1;resizable=0;labelBackgroundColor=default;align=center;verticalAlign=middle;fontStyle=1;fontColor=#333333;fontSize=13.3;" vertex="1" parent="FVjMAxVA79Mbzfy4P1aw-35">
          <mxGeometry x="-0.11097307937679268" relative="1" as="geometry" />
        </mxCell>
        <mxCell id="FVjMAxVA79Mbzfy4P1aw-37" value="Confirm Password" style="html=1;overflow=block;blockSpacing=1;whiteSpace=wrap;shape=parallelogram;perimeter=parallelogramPerimeter;anchorPointDirection=0;fontSize=16.7;fontColor=#3a414a;spacing=3.8;strokeColor=#3a414a;strokeOpacity=100;rounded=1;absoluteArcSize=1;arcSize=9;strokeWidth=0.8;lucidId=K9BM1~XGenjk;" vertex="1" parent="1">
          <mxGeometry x="-1852.5" y="465" width="120" height="90" as="geometry" />
        </mxCell>
        <mxCell id="FVjMAxVA79Mbzfy4P1aw-38" value="" style="html=1;jettySize=18;whiteSpace=wrap;fontSize=13;strokeColor=#3a414a;strokeOpacity=100;strokeWidth=0.8;rounded=1;arcSize=12;edgeStyle=orthogonalEdgeStyle;startArrow=none;endArrow=block;endFill=1;exitX=0.5;exitY=0.988;exitPerimeter=0;entryX=0.5;entryY=-0.004;entryPerimeter=0;lucidId=c-BMw57YNvsu;" edge="1" parent="1" source="FVjMAxVA79Mbzfy4P1aw-44" target="FVjMAxVA79Mbzfy4P1aw-27">
          <mxGeometry width="100" height="100" relative="1" as="geometry">
            <Array as="points" />
          </mxGeometry>
        </mxCell>
        <mxCell id="FVjMAxVA79Mbzfy4P1aw-39" value="No" style="text;html=1;resizable=0;labelBackgroundColor=default;align=center;verticalAlign=middle;fontStyle=1;fontColor=#333333;fontSize=13.3;" vertex="1" parent="FVjMAxVA79Mbzfy4P1aw-38">
          <mxGeometry x="-0.14185231796388287" relative="1" as="geometry" />
        </mxCell>
        <mxCell id="FVjMAxVA79Mbzfy4P1aw-40" value="Re-Type Password" style="html=1;overflow=block;blockSpacing=1;whiteSpace=wrap;shape=parallelogram;perimeter=parallelogramPerimeter;anchorPointDirection=0;fontSize=16.7;fontColor=#3a414a;spacing=3.8;strokeColor=#3a414a;strokeOpacity=100;rounded=1;absoluteArcSize=1;arcSize=9;strokeWidth=0.8;lucidId=r-BMJ1HJ6kwE;" vertex="1" parent="1">
          <mxGeometry x="-2062.5" y="840" width="120" height="90" as="geometry" />
        </mxCell>
        <mxCell id="FVjMAxVA79Mbzfy4P1aw-41" value="" style="html=1;jettySize=18;whiteSpace=wrap;fontSize=13;strokeColor=#3a414a;strokeOpacity=100;strokeWidth=0.8;rounded=1;arcSize=12;edgeStyle=orthogonalEdgeStyle;startArrow=none;endArrow=block;endFill=1;exitX=0.511;exitY=1.004;exitPerimeter=0;entryX=0.519;entryY=-0.004;entryPerimeter=0;lucidId=v-BMT10isIil;" edge="1" parent="1" source="FVjMAxVA79Mbzfy4P1aw-27" target="FVjMAxVA79Mbzfy4P1aw-40">
          <mxGeometry width="100" height="100" relative="1" as="geometry">
            <Array as="points" />
          </mxGeometry>
        </mxCell>
        <mxCell id="FVjMAxVA79Mbzfy4P1aw-42" value="" style="html=1;jettySize=18;whiteSpace=wrap;fontSize=13;strokeColor=#3a414a;strokeOpacity=100;strokeWidth=0.8;rounded=1;arcSize=12;edgeStyle=orthogonalEdgeStyle;startArrow=none;endArrow=block;endFill=1;exitX=0.903;exitY=0.5;exitPerimeter=0;entryX=0.903;entryY=0.5;entryPerimeter=0;lucidId=8-BMB4OTsRJx;" edge="1" parent="1" source="FVjMAxVA79Mbzfy4P1aw-40" target="FVjMAxVA79Mbzfy4P1aw-37">
          <mxGeometry width="100" height="100" relative="1" as="geometry">
            <Array as="points">
              <mxPoint x="-1679.5" y="885" />
              <mxPoint x="-1679.5" y="510" />
            </Array>
          </mxGeometry>
        </mxCell>
        <mxCell id="FVjMAxVA79Mbzfy4P1aw-43" value="" style="html=1;overflow=block;blockSpacing=1;whiteSpace=wrap;fontSize=13;spacing=3.8;strokeOpacity=0;fillOpacity=0;rounded=1;absoluteArcSize=1;arcSize=9;fillColor=#ffffff;strokeWidth=0.8;lucidId=a.BMtqIZh~BS;" vertex="1" parent="1">
          <mxGeometry x="-637.5" y="915" width="45" height="45" as="geometry" />
        </mxCell>
        <mxCell id="FVjMAxVA79Mbzfy4P1aw-44" value="Password match?" style="html=1;overflow=block;blockSpacing=1;whiteSpace=wrap;rhombus;fontSize=16.7;fontColor=#3a414a;spacing=3.8;strokeColor=#3a414a;strokeOpacity=100;rounded=1;absoluteArcSize=1;arcSize=9;strokeWidth=0.8;lucidId=HbCMypHDgkEk;" vertex="1" parent="1">
          <mxGeometry x="-2062.5" y="465" width="120" height="90" as="geometry" />
        </mxCell>
        <mxCell id="FVjMAxVA79Mbzfy4P1aw-45" value="" style="html=1;jettySize=18;whiteSpace=wrap;fontSize=13;strokeColor=#3a414a;strokeOpacity=100;strokeWidth=0.8;rounded=1;arcSize=12;edgeStyle=orthogonalEdgeStyle;startArrow=none;endArrow=block;endFill=1;exitX=0.097;exitY=0.5;exitPerimeter=0;entryX=0.984;entryY=0.5;entryPerimeter=0;lucidId=BcCMrEIRqyab;" edge="1" parent="1" source="FVjMAxVA79Mbzfy4P1aw-37" target="FVjMAxVA79Mbzfy4P1aw-44">
          <mxGeometry width="100" height="100" relative="1" as="geometry">
            <Array as="points">
              <mxPoint x="-1882.5" y="510" />
            </Array>
          </mxGeometry>
        </mxCell>
        <mxCell id="FVjMAxVA79Mbzfy4P1aw-46" value="Display&quot;Sign Up Success&quot;" style="html=1;overflow=block;blockSpacing=1;whiteSpace=wrap;shape=display;fontSize=16.7;fontColor=#3a414a;spacing=3.8;strokeColor=#3a414a;strokeOpacity=100;rounded=1;absoluteArcSize=1;arcSize=9;strokeWidth=0.8;lucidId=ceCM68oMtp0q;" vertex="1" parent="1">
          <mxGeometry x="-1680" y="285" width="262.5" height="90" as="geometry" />
        </mxCell>
        <mxCell id="FVjMAxVA79Mbzfy4P1aw-47" value="" style="html=1;jettySize=18;whiteSpace=wrap;fontSize=13;strokeColor=#3a414a;strokeOpacity=100;strokeWidth=0.8;rounded=1;arcSize=12;edgeStyle=orthogonalEdgeStyle;startArrow=none;endArrow=block;endFill=1;exitX=1.001;exitY=0.5;exitPerimeter=0;entryX=0.007;entryY=0.5;entryPerimeter=0;lucidId=ciCMHnVDcs4B;" edge="1" parent="1" source="FVjMAxVA79Mbzfy4P1aw-49">
          <mxGeometry width="100" height="100" relative="1" as="geometry">
            <Array as="points" />
            <mxPoint x="-96.44999999999982" y="330" as="targetPoint" />
          </mxGeometry>
        </mxCell>
        <mxCell id="FVjMAxVA79Mbzfy4P1aw-48" value="" style="html=1;jettySize=18;whiteSpace=wrap;fontSize=13;strokeColor=#3a414a;strokeOpacity=100;strokeWidth=0.8;rounded=1;arcSize=12;edgeStyle=orthogonalEdgeStyle;startArrow=none;endArrow=block;endFill=1;exitX=1.002;exitY=0.5;exitPerimeter=0;entryX=-0.001;entryY=0.5;entryPerimeter=0;lucidId=ReCMzrAHjFGo;" edge="1" parent="1" source="FVjMAxVA79Mbzfy4P1aw-46" target="FVjMAxVA79Mbzfy4P1aw-49">
          <mxGeometry width="100" height="100" relative="1" as="geometry">
            <Array as="points" />
          </mxGeometry>
        </mxCell>
        <mxCell id="FVjMAxVA79Mbzfy4P1aw-49" value="Re-Direct to log-in page" style="html=1;overflow=block;blockSpacing=1;whiteSpace=wrap;fontSize=16.7;fontColor=#3a414a;spacing=9;strokeColor=#3a414a;strokeOpacity=100;rounded=1;absoluteArcSize=1;arcSize=9;strokeWidth=0.8;lucidId=ciCM9X_xU7vY;" vertex="1" parent="1">
          <mxGeometry x="-1012.5" y="285" width="271" height="90" as="geometry" />
        </mxCell>
        <mxCell id="FVjMAxVA79Mbzfy4P1aw-50" value="User Database" style="html=1;overflow=block;blockSpacing=1;whiteSpace=wrap;shape=cylinder3;size=4;anchorPointDirection=0;boundedLbl=1;fontSize=16.7;fontColor=#3a414a;spacing=3.8;strokeColor=#3a414a;strokeOpacity=100;rounded=1;absoluteArcSize=1;arcSize=9;strokeWidth=0.8;lucidId=vtCM.gT0s~9P;" vertex="1" parent="1">
          <mxGeometry x="-1156.5" y="735" width="90" height="90" as="geometry" />
        </mxCell>
        <mxCell id="FVjMAxVA79Mbzfy4P1aw-51" value="User Database" style="html=1;overflow=block;blockSpacing=1;whiteSpace=wrap;shape=cylinder3;size=4;anchorPointDirection=0;boundedLbl=1;fontSize=16.7;fontColor=#3a414a;spacing=3.8;strokeColor=#3a414a;strokeOpacity=100;rounded=1;absoluteArcSize=1;arcSize=9;strokeWidth=0.8;lucidId=guCMTPRK~Ueo;" vertex="1" parent="1">
          <mxGeometry x="-524.5" y="735" width="90" height="90" as="geometry" />
        </mxCell>
        <mxCell id="FVjMAxVA79Mbzfy4P1aw-52" value="User Database" style="html=1;overflow=block;blockSpacing=1;whiteSpace=wrap;shape=cylinder3;size=4;anchorPointDirection=0;boundedLbl=1;fontSize=16.7;fontColor=#3a414a;spacing=3.8;strokeColor=#3a414a;strokeOpacity=100;rounded=1;absoluteArcSize=1;arcSize=9;strokeWidth=0.8;lucidId=UwCMiKdwTrry;" vertex="1" parent="1">
          <mxGeometry x="-741.5" y="465" width="90" height="90" as="geometry" />
        </mxCell>
        <mxCell id="FVjMAxVA79Mbzfy4P1aw-53" value="" style="html=1;jettySize=18;whiteSpace=wrap;fontSize=13;strokeColor=#3a414a;strokeOpacity=100;strokeWidth=0.8;rounded=1;arcSize=12;edgeStyle=orthogonalEdgeStyle;startArrow=none;endArrow=block;endFill=1;exitX=0.01;exitY=0.5;exitPerimeter=0;entryX=1.004;entryY=0.5;entryPerimeter=0;lucidId=0wCM_nsk~VOU;" edge="1" parent="1" source="FVjMAxVA79Mbzfy4P1aw-13" target="FVjMAxVA79Mbzfy4P1aw-52">
          <mxGeometry width="100" height="100" relative="1" as="geometry">
            <Array as="points" />
          </mxGeometry>
        </mxCell>
        <mxCell id="FVjMAxVA79Mbzfy4P1aw-54" value="" style="html=1;jettySize=18;whiteSpace=wrap;fontSize=13;strokeColor=#3a414a;strokeOpacity=100;strokeWidth=0.8;rounded=1;arcSize=12;edgeStyle=orthogonalEdgeStyle;startArrow=none;endArrow=block;endFill=1;exitX=-0.004;exitY=0.5;exitPerimeter=0;entryX=0.903;entryY=0.5;entryPerimeter=0;lucidId=7wCMernBCzNd;" edge="1" parent="1" source="FVjMAxVA79Mbzfy4P1aw-52" target="FVjMAxVA79Mbzfy4P1aw-31">
          <mxGeometry width="100" height="100" relative="1" as="geometry">
            <Array as="points" />
          </mxGeometry>
        </mxCell>
        <mxCell id="FVjMAxVA79Mbzfy4P1aw-55" value="User Database" style="html=1;overflow=block;blockSpacing=1;whiteSpace=wrap;shape=cylinder3;size=4;anchorPointDirection=0;boundedLbl=1;fontSize=16.7;fontColor=#3a414a;spacing=3.8;strokeColor=#3a414a;strokeOpacity=100;rounded=1;absoluteArcSize=1;arcSize=9;strokeWidth=0.8;lucidId=ZzCMPFhX9a.5;" vertex="1" parent="1">
          <mxGeometry x="-1417.5" y="465" width="90" height="90" as="geometry" />
        </mxCell>
        <mxCell id="FVjMAxVA79Mbzfy4P1aw-56" value="" style="html=1;jettySize=18;whiteSpace=wrap;fontSize=13;strokeColor=#3a414a;strokeOpacity=100;strokeWidth=0.8;rounded=1;arcSize=12;edgeStyle=orthogonalEdgeStyle;startArrow=none;endArrow=block;endFill=1;exitX=1.004;exitY=0.5;exitPerimeter=0;entryX=0.007;entryY=0.5;entryPerimeter=0;lucidId=FACMSlamCjZt;" edge="1" parent="1" source="FVjMAxVA79Mbzfy4P1aw-59" target="FVjMAxVA79Mbzfy4P1aw-46">
          <mxGeometry width="100" height="100" relative="1" as="geometry">
            <Array as="points" />
          </mxGeometry>
        </mxCell>
        <mxCell id="FVjMAxVA79Mbzfy4P1aw-57" value="" style="html=1;jettySize=18;whiteSpace=wrap;fontSize=13;strokeColor=#3a414a;strokeOpacity=100;strokeWidth=0.8;rounded=1;arcSize=12;edgeStyle=orthogonalEdgeStyle;startArrow=none;endArrow=block;endFill=1;exitX=0.5;exitY=0.012;exitPerimeter=0;entryX=0.5;entryY=1.004;entryPerimeter=0;lucidId=yACMGTNtn-cx;" edge="1" parent="1" source="FVjMAxVA79Mbzfy4P1aw-44" target="FVjMAxVA79Mbzfy4P1aw-59">
          <mxGeometry width="100" height="100" relative="1" as="geometry">
            <Array as="points" />
          </mxGeometry>
        </mxCell>
        <mxCell id="FVjMAxVA79Mbzfy4P1aw-58" value="Yes" style="text;html=1;resizable=0;labelBackgroundColor=default;align=center;verticalAlign=middle;fontStyle=1;fontColor=#333333;fontSize=13.3;" vertex="1" parent="FVjMAxVA79Mbzfy4P1aw-57">
          <mxGeometry x="-0.1157097146574354" relative="1" as="geometry" />
        </mxCell>
        <mxCell id="FVjMAxVA79Mbzfy4P1aw-59" value="User Database" style="html=1;overflow=block;blockSpacing=1;whiteSpace=wrap;shape=cylinder3;size=4;anchorPointDirection=0;boundedLbl=1;fontSize=16.7;fontColor=#3a414a;spacing=3.8;strokeColor=#3a414a;strokeOpacity=100;rounded=1;absoluteArcSize=1;arcSize=9;strokeWidth=0.8;lucidId=FACMt9_cFeTJ;" vertex="1" parent="1">
          <mxGeometry x="-2047.5" y="285" width="90" height="90" as="geometry" />
        </mxCell>
        <mxCell id="FVjMAxVA79Mbzfy4P1aw-61" value="Click Logout" style="html=1;overflow=block;blockSpacing=1;whiteSpace=wrap;rhombus;fontSize=16.7;fontColor=#3a414a;spacing=3.8;strokeColor=#3a414a;strokeOpacity=100;rounded=1;absoluteArcSize=1;arcSize=9;strokeWidth=0.8;lucidId=qxHMFzlLqb1k;" vertex="1" parent="1">
          <mxGeometry x="945" y="120" width="120" height="90" as="geometry" />
        </mxCell>
        <mxCell id="FVjMAxVA79Mbzfy4P1aw-62" value="Click Store " style="html=1;overflow=block;blockSpacing=1;whiteSpace=wrap;rhombus;fontSize=16.7;fontColor=#3a414a;spacing=3.8;strokeColor=#3a414a;strokeOpacity=100;rounded=1;absoluteArcSize=1;arcSize=9;strokeWidth=0.8;lucidId=SxHMM_iMOJi6;" vertex="1" parent="1">
          <mxGeometry x="940" y="285" width="120" height="90" as="geometry" />
        </mxCell>
        <mxCell id="FVjMAxVA79Mbzfy4P1aw-63" value="" style="html=1;jettySize=18;whiteSpace=wrap;fontSize=13;strokeColor=#3a414a;strokeOpacity=100;strokeWidth=0.8;rounded=1;arcSize=12;edgeStyle=orthogonalEdgeStyle;startArrow=none;endArrow=block;endFill=1;exitX=0.5;exitY=0.012;exitPerimeter=0;lucidId=XAHMkTGGWoWO;" edge="1" parent="1" source="FVjMAxVA79Mbzfy4P1aw-61">
          <mxGeometry width="100" height="100" relative="1" as="geometry">
            <Array as="points">
              <mxPoint x="1005" y="91" />
              <mxPoint x="224" y="91" />
            </Array>
            <mxPoint x="224" y="250" as="targetPoint" />
          </mxGeometry>
        </mxCell>
        <mxCell id="FVjMAxVA79Mbzfy4P1aw-81" value="Yes" style="edgeLabel;html=1;align=center;verticalAlign=middle;resizable=0;points=[];" vertex="1" connectable="0" parent="FVjMAxVA79Mbzfy4P1aw-63">
          <mxGeometry x="-0.6594" y="-2" relative="1" as="geometry">
            <mxPoint as="offset" />
          </mxGeometry>
        </mxCell>
        <mxCell id="FVjMAxVA79Mbzfy4P1aw-65" value="Display Log in page" style="rounded=0;whiteSpace=wrap;html=1;" vertex="1" parent="1">
          <mxGeometry x="-97" y="285" width="150" height="90" as="geometry" />
        </mxCell>
        <mxCell id="FVjMAxVA79Mbzfy4P1aw-66" value="" style="endArrow=classic;html=1;rounded=0;entryX=0;entryY=0.5;entryDx=0;entryDy=0;" edge="1" parent="1" target="FVjMAxVA79Mbzfy4P1aw-62">
          <mxGeometry width="50" height="50" relative="1" as="geometry">
            <mxPoint x="810" y="330" as="sourcePoint" />
            <mxPoint x="860" y="280" as="targetPoint" />
          </mxGeometry>
        </mxCell>
        <mxCell id="FVjMAxVA79Mbzfy4P1aw-67" value="" style="endArrow=classic;html=1;rounded=0;entryX=0;entryY=0.5;entryDx=0;entryDy=0;exitX=0.5;exitY=0;exitDx=0;exitDy=0;" edge="1" parent="1" source="FVjMAxVA79Mbzfy4P1aw-8" target="FVjMAxVA79Mbzfy4P1aw-61">
          <mxGeometry width="50" height="50" relative="1" as="geometry">
            <mxPoint x="810" y="331" as="sourcePoint" />
            <mxPoint x="860" y="281" as="targetPoint" />
            <Array as="points">
              <mxPoint x="698" y="165" />
            </Array>
          </mxGeometry>
        </mxCell>
        <mxCell id="FVjMAxVA79Mbzfy4P1aw-68" value="" style="endArrow=classic;html=1;rounded=0;" edge="1" parent="1" target="FVjMAxVA79Mbzfy4P1aw-69">
          <mxGeometry width="50" height="50" relative="1" as="geometry">
            <mxPoint x="700" y="380" as="sourcePoint" />
            <mxPoint x="960" y="440" as="targetPoint" />
            <Array as="points">
              <mxPoint x="700" y="460" />
              <mxPoint x="820" y="460" />
            </Array>
          </mxGeometry>
        </mxCell>
        <mxCell id="FVjMAxVA79Mbzfy4P1aw-69" value="Click About us" style="rhombus;whiteSpace=wrap;html=1;" vertex="1" parent="1">
          <mxGeometry x="945" y="420" width="120" height="80" as="geometry" />
        </mxCell>
        <mxCell id="FVjMAxVA79Mbzfy4P1aw-70" value="" style="endArrow=classic;html=1;rounded=0;" edge="1" parent="1" source="FVjMAxVA79Mbzfy4P1aw-62" target="FVjMAxVA79Mbzfy4P1aw-8">
          <mxGeometry width="50" height="50" relative="1" as="geometry">
            <mxPoint x="1020" y="410" as="sourcePoint" />
            <mxPoint x="1070" y="360" as="targetPoint" />
          </mxGeometry>
        </mxCell>
        <mxCell id="FVjMAxVA79Mbzfy4P1aw-79" value="Yes" style="edgeLabel;html=1;align=center;verticalAlign=middle;resizable=0;points=[];" vertex="1" connectable="0" parent="FVjMAxVA79Mbzfy4P1aw-70">
          <mxGeometry x="0.1454" relative="1" as="geometry">
            <mxPoint as="offset" />
          </mxGeometry>
        </mxCell>
        <mxCell id="FVjMAxVA79Mbzfy4P1aw-71" value="" style="endArrow=classic;html=1;rounded=0;exitX=1;exitY=0.5;exitDx=0;exitDy=0;" edge="1" parent="1" source="FVjMAxVA79Mbzfy4P1aw-69">
          <mxGeometry width="50" height="50" relative="1" as="geometry">
            <mxPoint x="1070" y="460" as="sourcePoint" />
            <mxPoint x="1150" y="460" as="targetPoint" />
          </mxGeometry>
        </mxCell>
        <mxCell id="FVjMAxVA79Mbzfy4P1aw-83" value="Yes" style="edgeLabel;html=1;align=center;verticalAlign=middle;resizable=0;points=[];" vertex="1" connectable="0" parent="FVjMAxVA79Mbzfy4P1aw-71">
          <mxGeometry x="0.0583" y="-2" relative="1" as="geometry">
            <mxPoint as="offset" />
          </mxGeometry>
        </mxCell>
        <mxCell id="FVjMAxVA79Mbzfy4P1aw-72" value="Re-direct to about us page" style="rounded=0;whiteSpace=wrap;html=1;" vertex="1" parent="1">
          <mxGeometry x="1150" y="429" width="120" height="60" as="geometry" />
        </mxCell>
        <mxCell id="FVjMAxVA79Mbzfy4P1aw-76" value="" style="endArrow=classic;html=1;rounded=0;" edge="1" parent="1" target="FVjMAxVA79Mbzfy4P1aw-84">
          <mxGeometry width="50" height="50" relative="1" as="geometry">
            <mxPoint x="700" y="460" as="sourcePoint" />
            <mxPoint x="700" y="560" as="targetPoint" />
          </mxGeometry>
        </mxCell>
        <mxCell id="FVjMAxVA79Mbzfy4P1aw-84" value="User click any of the following items:&lt;br&gt;PE UNIFORM&lt;br&gt;BLOUSE&lt;br&gt;GREEN PANTS&lt;br&gt;WHITE POLO" style="rhombus;whiteSpace=wrap;html=1;" vertex="1" parent="1">
          <mxGeometry x="515.63" y="592.5" width="363.75" height="237.5" as="geometry" />
        </mxCell>
        <mxCell id="FVjMAxVA79Mbzfy4P1aw-86" value="" style="endArrow=classic;html=1;rounded=0;exitX=0.5;exitY=1;exitDx=0;exitDy=0;" edge="1" parent="1" source="FVjMAxVA79Mbzfy4P1aw-84">
          <mxGeometry width="50" height="50" relative="1" as="geometry">
            <mxPoint x="730" y="940" as="sourcePoint" />
            <mxPoint x="700" y="920" as="targetPoint" />
          </mxGeometry>
        </mxCell>
        <mxCell id="FVjMAxVA79Mbzfy4P1aw-87" value="Yes" style="edgeLabel;html=1;align=center;verticalAlign=middle;resizable=0;points=[];" vertex="1" connectable="0" parent="FVjMAxVA79Mbzfy4P1aw-86">
          <mxGeometry x="0.0866" y="4" relative="1" as="geometry">
            <mxPoint as="offset" />
          </mxGeometry>
        </mxCell>
        <mxCell id="FVjMAxVA79Mbzfy4P1aw-89" value="" style="endArrow=classic;html=1;rounded=0;" edge="1" parent="1" source="FVjMAxVA79Mbzfy4P1aw-93" target="FVjMAxVA79Mbzfy4P1aw-90">
          <mxGeometry width="50" height="50" relative="1" as="geometry">
            <mxPoint x="758" y="950" as="sourcePoint" />
            <mxPoint x="810" y="950" as="targetPoint" />
          </mxGeometry>
        </mxCell>
        <mxCell id="FVjMAxVA79Mbzfy4P1aw-90" value="Valid quantity?" style="rhombus;whiteSpace=wrap;html=1;" vertex="1" parent="1">
          <mxGeometry x="870" y="910" width="150" height="80" as="geometry" />
        </mxCell>
        <mxCell id="FVjMAxVA79Mbzfy4P1aw-91" value="" style="endArrow=classic;html=1;rounded=0;exitX=0.5;exitY=1;exitDx=0;exitDy=0;" edge="1" parent="1" source="FVjMAxVA79Mbzfy4P1aw-90" target="FVjMAxVA79Mbzfy4P1aw-99">
          <mxGeometry width="50" height="50" relative="1" as="geometry">
            <mxPoint x="940" y="910" as="sourcePoint" />
            <mxPoint x="945" y="1050" as="targetPoint" />
          </mxGeometry>
        </mxCell>
        <mxCell id="FVjMAxVA79Mbzfy4P1aw-97" value="Yes" style="edgeLabel;html=1;align=center;verticalAlign=middle;resizable=0;points=[];" vertex="1" connectable="0" parent="FVjMAxVA79Mbzfy4P1aw-91">
          <mxGeometry x="0.1264" y="2" relative="1" as="geometry">
            <mxPoint as="offset" />
          </mxGeometry>
        </mxCell>
        <mxCell id="FVjMAxVA79Mbzfy4P1aw-93" value="Input quantity of items" style="shape=parallelogram;perimeter=parallelogramPerimeter;whiteSpace=wrap;html=1;fixedSize=1;" vertex="1" parent="1">
          <mxGeometry x="617.5" y="920" width="160" height="60" as="geometry" />
        </mxCell>
        <mxCell id="FVjMAxVA79Mbzfy4P1aw-94" value="" style="endArrow=classic;html=1;rounded=0;" edge="1" parent="1" source="FVjMAxVA79Mbzfy4P1aw-90" target="FVjMAxVA79Mbzfy4P1aw-95">
          <mxGeometry width="50" height="50" relative="1" as="geometry">
            <mxPoint x="950" y="910" as="sourcePoint" />
            <mxPoint x="945" y="830" as="targetPoint" />
          </mxGeometry>
        </mxCell>
        <mxCell id="FVjMAxVA79Mbzfy4P1aw-96" value="No" style="edgeLabel;html=1;align=center;verticalAlign=middle;resizable=0;points=[];" vertex="1" connectable="0" parent="FVjMAxVA79Mbzfy4P1aw-94">
          <mxGeometry x="-0.3464" y="1" relative="1" as="geometry">
            <mxPoint as="offset" />
          </mxGeometry>
        </mxCell>
        <mxCell id="FVjMAxVA79Mbzfy4P1aw-95" value="Invalid Quantity" style="shape=display;whiteSpace=wrap;html=1;" vertex="1" parent="1">
          <mxGeometry x="905" y="770" width="80" height="40" as="geometry" />
        </mxCell>
        <mxCell id="FVjMAxVA79Mbzfy4P1aw-99" value="Input Size : Small, Medium, Large, Extra Large" style="shape=parallelogram;perimeter=parallelogramPerimeter;whiteSpace=wrap;html=1;fixedSize=1;" vertex="1" parent="1">
          <mxGeometry x="852.5" y="1050" width="185" height="60" as="geometry" />
        </mxCell>
        <mxCell id="FVjMAxVA79Mbzfy4P1aw-101" value="" style="endArrow=classic;html=1;rounded=0;exitX=0.5;exitY=1;exitDx=0;exitDy=0;" edge="1" parent="1" source="FVjMAxVA79Mbzfy4P1aw-99" target="FVjMAxVA79Mbzfy4P1aw-107">
          <mxGeometry width="50" height="50" relative="1" as="geometry">
            <mxPoint x="940" y="1170" as="sourcePoint" />
            <mxPoint x="945" y="1190" as="targetPoint" />
          </mxGeometry>
        </mxCell>
        <mxCell id="FVjMAxVA79Mbzfy4P1aw-107" value="Requirement Size clicked?" style="rhombus;whiteSpace=wrap;html=1;" vertex="1" parent="1">
          <mxGeometry x="852.5" y="1190" width="185" height="110" as="geometry" />
        </mxCell>
        <mxCell id="FVjMAxVA79Mbzfy4P1aw-108" value="Yes" style="endArrow=classic;html=1;rounded=0;entryX=0.5;entryY=0;entryDx=0;entryDy=0;" edge="1" parent="1" source="FVjMAxVA79Mbzfy4P1aw-107" target="FVjMAxVA79Mbzfy4P1aw-139">
          <mxGeometry width="50" height="50" relative="1" as="geometry">
            <mxPoint x="1030" y="1250" as="sourcePoint" />
            <mxPoint x="1080" y="1390" as="targetPoint" />
            <Array as="points">
              <mxPoint x="940" y="1390" />
            </Array>
          </mxGeometry>
        </mxCell>
        <mxCell id="FVjMAxVA79Mbzfy4P1aw-111" value="Select size" style="shape=display;whiteSpace=wrap;html=1;" vertex="1" parent="1">
          <mxGeometry x="680" y="1225" width="80" height="40" as="geometry" />
        </mxCell>
        <mxCell id="FVjMAxVA79Mbzfy4P1aw-112" value="" style="endArrow=classic;html=1;rounded=0;exitX=0;exitY=0.5;exitDx=0;exitDy=0;entryX=1;entryY=0.5;entryDx=0;entryDy=0;entryPerimeter=0;" edge="1" parent="1" source="FVjMAxVA79Mbzfy4P1aw-107" target="FVjMAxVA79Mbzfy4P1aw-111">
          <mxGeometry width="50" height="50" relative="1" as="geometry">
            <mxPoint x="700" y="1190" as="sourcePoint" />
            <mxPoint x="750" y="1140" as="targetPoint" />
          </mxGeometry>
        </mxCell>
        <mxCell id="FVjMAxVA79Mbzfy4P1aw-113" value="No" style="edgeLabel;html=1;align=center;verticalAlign=middle;resizable=0;points=[];" vertex="1" connectable="0" parent="FVjMAxVA79Mbzfy4P1aw-112">
          <mxGeometry x="-0.39" y="2" relative="1" as="geometry">
            <mxPoint as="offset" />
          </mxGeometry>
        </mxCell>
        <mxCell id="FVjMAxVA79Mbzfy4P1aw-115" value="" style="endArrow=classic;html=1;rounded=0;" edge="1" parent="1">
          <mxGeometry width="50" height="50" relative="1" as="geometry">
            <mxPoint x="700" y="560" as="sourcePoint" />
            <mxPoint x="940" y="560" as="targetPoint" />
          </mxGeometry>
        </mxCell>
        <mxCell id="FVjMAxVA79Mbzfy4P1aw-118" value="Display Total amount of order" style="rounded=0;whiteSpace=wrap;html=1;" vertex="1" parent="1">
          <mxGeometry x="1315" y="1215" width="120" height="60" as="geometry" />
        </mxCell>
        <mxCell id="FVjMAxVA79Mbzfy4P1aw-119" value="Proceed to place this order?" style="rhombus;whiteSpace=wrap;html=1;" vertex="1" parent="1">
          <mxGeometry x="1300" y="1030" width="150" height="90" as="geometry" />
        </mxCell>
        <mxCell id="FVjMAxVA79Mbzfy4P1aw-120" value="" style="endArrow=classic;html=1;rounded=0;exitX=0.5;exitY=0;exitDx=0;exitDy=0;" edge="1" parent="1" source="FVjMAxVA79Mbzfy4P1aw-118" target="FVjMAxVA79Mbzfy4P1aw-119">
          <mxGeometry width="50" height="50" relative="1" as="geometry">
            <mxPoint x="1380" y="1210" as="sourcePoint" />
            <mxPoint x="1430" y="1160" as="targetPoint" />
          </mxGeometry>
        </mxCell>
        <mxCell id="FVjMAxVA79Mbzfy4P1aw-121" value="" style="endArrow=classic;html=1;rounded=0;exitX=0.5;exitY=0;exitDx=0;exitDy=0;" edge="1" parent="1" source="FVjMAxVA79Mbzfy4P1aw-119">
          <mxGeometry width="50" height="50" relative="1" as="geometry">
            <mxPoint x="1400" y="1050" as="sourcePoint" />
            <mxPoint x="1375" y="960" as="targetPoint" />
          </mxGeometry>
        </mxCell>
        <mxCell id="FVjMAxVA79Mbzfy4P1aw-124" value="Yes" style="edgeLabel;html=1;align=center;verticalAlign=middle;resizable=0;points=[];" vertex="1" connectable="0" parent="FVjMAxVA79Mbzfy4P1aw-121">
          <mxGeometry x="-0.2159" y="-2" relative="1" as="geometry">
            <mxPoint as="offset" />
          </mxGeometry>
        </mxCell>
        <mxCell id="FVjMAxVA79Mbzfy4P1aw-122" value="" style="endArrow=classic;html=1;rounded=0;exitX=1;exitY=0.5;exitDx=0;exitDy=0;entryX=1;entryY=0.5;entryDx=0;entryDy=0;" edge="1" parent="1" source="FVjMAxVA79Mbzfy4P1aw-119" target="FVjMAxVA79Mbzfy4P1aw-118">
          <mxGeometry width="50" height="50" relative="1" as="geometry">
            <mxPoint x="1450" y="1080" as="sourcePoint" />
            <mxPoint x="1500" y="1030" as="targetPoint" />
            <Array as="points">
              <mxPoint x="1560" y="1075" />
              <mxPoint x="1560" y="1245" />
            </Array>
          </mxGeometry>
        </mxCell>
        <mxCell id="FVjMAxVA79Mbzfy4P1aw-123" value="No" style="edgeLabel;html=1;align=center;verticalAlign=middle;resizable=0;points=[];" vertex="1" connectable="0" parent="FVjMAxVA79Mbzfy4P1aw-122">
          <mxGeometry x="-0.7969" relative="1" as="geometry">
            <mxPoint as="offset" />
          </mxGeometry>
        </mxCell>
        <mxCell id="FVjMAxVA79Mbzfy4P1aw-125" value="Order Database" style="shape=cylinder3;whiteSpace=wrap;html=1;boundedLbl=1;backgroundOutline=1;size=15;" vertex="1" parent="1">
          <mxGeometry x="1337.5" y="880" width="75" height="80" as="geometry" />
        </mxCell>
        <mxCell id="FVjMAxVA79Mbzfy4P1aw-127" value="Click Order Status" style="rhombus;whiteSpace=wrap;html=1;" vertex="1" parent="1">
          <mxGeometry x="940" y="520" width="130" height="80" as="geometry" />
        </mxCell>
        <mxCell id="FVjMAxVA79Mbzfy4P1aw-128" value="" style="endArrow=classic;html=1;rounded=0;" edge="1" parent="1">
          <mxGeometry width="50" height="50" relative="1" as="geometry">
            <mxPoint x="1070" y="560" as="sourcePoint" />
            <mxPoint x="1150" y="560" as="targetPoint" />
          </mxGeometry>
        </mxCell>
        <mxCell id="FVjMAxVA79Mbzfy4P1aw-137" value="Yes" style="edgeLabel;html=1;align=center;verticalAlign=middle;resizable=0;points=[];" vertex="1" connectable="0" parent="FVjMAxVA79Mbzfy4P1aw-128">
          <mxGeometry x="-0.1763" relative="1" as="geometry">
            <mxPoint as="offset" />
          </mxGeometry>
        </mxCell>
        <mxCell id="FVjMAxVA79Mbzfy4P1aw-129" value="Re-direct to orders page" style="rounded=0;whiteSpace=wrap;html=1;" vertex="1" parent="1">
          <mxGeometry x="1150" y="533" width="120" height="60" as="geometry" />
        </mxCell>
        <mxCell id="FVjMAxVA79Mbzfy4P1aw-131" value="&lt;b&gt;A&lt;/b&gt;" style="ellipse;whiteSpace=wrap;html=1;aspect=fixed;" vertex="1" parent="1">
          <mxGeometry x="410" y="290" width="80" height="80" as="geometry" />
        </mxCell>
        <mxCell id="FVjMAxVA79Mbzfy4P1aw-132" value="" style="endArrow=classic;html=1;rounded=0;exitX=0.5;exitY=0;exitDx=0;exitDy=0;exitPerimeter=0;" edge="1" parent="1" source="FVjMAxVA79Mbzfy4P1aw-125">
          <mxGeometry width="50" height="50" relative="1" as="geometry">
            <mxPoint x="1370" y="880" as="sourcePoint" />
            <mxPoint x="1375" y="810" as="targetPoint" />
          </mxGeometry>
        </mxCell>
        <mxCell id="FVjMAxVA79Mbzfy4P1aw-133" value="Order Success" style="shape=display;whiteSpace=wrap;html=1;" vertex="1" parent="1">
          <mxGeometry x="1330" y="770" width="80" height="40" as="geometry" />
        </mxCell>
        <mxCell id="FVjMAxVA79Mbzfy4P1aw-134" value="" style="endArrow=classic;html=1;rounded=0;exitX=0;exitY=0;exitDx=40;exitDy=0;exitPerimeter=0;" edge="1" parent="1">
          <mxGeometry width="50" height="50" relative="1" as="geometry">
            <mxPoint x="1369.71" y="770" as="sourcePoint" />
            <mxPoint x="1369.71" y="700" as="targetPoint" />
          </mxGeometry>
        </mxCell>
        <mxCell id="FVjMAxVA79Mbzfy4P1aw-136" value="A" style="ellipse;whiteSpace=wrap;html=1;aspect=fixed;" vertex="1" parent="1">
          <mxGeometry x="1330" y="620" width="80" height="80" as="geometry" />
        </mxCell>
        <mxCell id="FVjMAxVA79Mbzfy4P1aw-138" value="" style="endArrow=classic;html=1;rounded=0;exitX=1;exitY=0.5;exitDx=0;exitDy=0;" edge="1" parent="1" source="FVjMAxVA79Mbzfy4P1aw-131" target="FVjMAxVA79Mbzfy4P1aw-8">
          <mxGeometry width="50" height="50" relative="1" as="geometry">
            <mxPoint x="490" y="350" as="sourcePoint" />
            <mxPoint x="540" y="300" as="targetPoint" />
          </mxGeometry>
        </mxCell>
        <mxCell id="FVjMAxVA79Mbzfy4P1aw-139" value="Type of delivery : Pick up" style="rhombus;whiteSpace=wrap;html=1;" vertex="1" parent="1">
          <mxGeometry x="850" y="1390" width="180" height="100" as="geometry" />
        </mxCell>
        <mxCell id="FVjMAxVA79Mbzfy4P1aw-141" value="" style="endArrow=classic;html=1;rounded=0;exitX=1;exitY=0.5;exitDx=0;exitDy=0;entryX=0.5;entryY=1;entryDx=0;entryDy=0;" edge="1" parent="1" source="FVjMAxVA79Mbzfy4P1aw-139" target="FVjMAxVA79Mbzfy4P1aw-118">
          <mxGeometry width="50" height="50" relative="1" as="geometry">
            <mxPoint x="1030" y="1440" as="sourcePoint" />
            <mxPoint x="1080" y="1390" as="targetPoint" />
            <Array as="points">
              <mxPoint x="1375" y="1440" />
            </Array>
          </mxGeometry>
        </mxCell>
        <mxCell id="FVjMAxVA79Mbzfy4P1aw-142" value="Yes" style="edgeLabel;html=1;align=center;verticalAlign=middle;resizable=0;points=[];" vertex="1" connectable="0" parent="FVjMAxVA79Mbzfy4P1aw-141">
          <mxGeometry x="-0.3684" y="1" relative="1" as="geometry">
            <mxPoint as="offset" />
          </mxGeometry>
        </mxCell>
        <mxCell id="FVjMAxVA79Mbzfy4P1aw-143" value="" style="endArrow=classic;html=1;rounded=0;exitX=0.5;exitY=1;exitDx=0;exitDy=0;" edge="1" parent="1" source="FVjMAxVA79Mbzfy4P1aw-139">
          <mxGeometry width="50" height="50" relative="1" as="geometry">
            <mxPoint x="1030" y="1630" as="sourcePoint" />
            <mxPoint x="940" y="1550" as="targetPoint" />
          </mxGeometry>
        </mxCell>
        <mxCell id="FVjMAxVA79Mbzfy4P1aw-144" value="Input address" style="shape=parallelogram;perimeter=parallelogramPerimeter;whiteSpace=wrap;html=1;fixedSize=1;" vertex="1" parent="1">
          <mxGeometry x="879" y="1550" width="120" height="60" as="geometry" />
        </mxCell>
        <mxCell id="FVjMAxVA79Mbzfy4P1aw-146" value="" style="endArrow=classic;html=1;rounded=0;exitX=1;exitY=0.5;exitDx=0;exitDy=0;entryX=0.5;entryY=1;entryDx=0;entryDy=0;" edge="1" parent="1" source="FVjMAxVA79Mbzfy4P1aw-144" target="FVjMAxVA79Mbzfy4P1aw-118">
          <mxGeometry width="50" height="50" relative="1" as="geometry">
            <mxPoint x="1100" y="1590" as="sourcePoint" />
            <mxPoint x="1150" y="1540" as="targetPoint" />
            <Array as="points">
              <mxPoint x="1375" y="1580" />
            </Array>
          </mxGeometry>
        </mxCell>
        <mxCell id="FVjMAxVA79Mbzfy4P1aw-147" value="" style="endArrow=classic;html=1;rounded=0;exitX=0;exitY=0;exitDx=40;exitDy=0;exitPerimeter=0;" edge="1" parent="1" source="FVjMAxVA79Mbzfy4P1aw-111" target="FVjMAxVA79Mbzfy4P1aw-107">
          <mxGeometry width="50" height="50" relative="1" as="geometry">
            <mxPoint x="720" y="1220" as="sourcePoint" />
            <mxPoint x="950" y="1170" as="targetPoint" />
            <Array as="points">
              <mxPoint x="720" y="1150" />
              <mxPoint x="830" y="1150" />
              <mxPoint x="945" y="1150" />
              <mxPoint x="945" y="1170" />
            </Array>
          </mxGeometry>
        </mxCell>
        <mxCell id="FVjMAxVA79Mbzfy4P1aw-151" value="" style="endArrow=none;html=1;rounded=0;entryX=0;entryY=0.5;entryDx=0;entryDy=0;entryPerimeter=0;" edge="1" parent="1" target="FVjMAxVA79Mbzfy4P1aw-95">
          <mxGeometry width="50" height="50" relative="1" as="geometry">
            <mxPoint x="700" y="920" as="sourcePoint" />
            <mxPoint x="880" y="820" as="targetPoint" />
            <Array as="points">
              <mxPoint x="700" y="890" />
              <mxPoint x="770" y="890" />
              <mxPoint x="850" y="890" />
              <mxPoint x="850" y="790" />
            </Array>
          </mxGeometry>
        </mxCell>
        <mxCell id="FVjMAxVA79Mbzfy4P1aw-157" value="&lt;font style=&quot;font-size: 24px;&quot;&gt;Start&lt;br&gt;http://BuyCDMUniformonline&lt;/font&gt;" style="strokeWidth=2;html=1;shape=mxgraph.flowchart.terminator;whiteSpace=wrap;" vertex="1" parent="1">
          <mxGeometry x="-229.13" y="80" width="414.25" height="120" as="geometry" />
        </mxCell>
        <mxCell id="FVjMAxVA79Mbzfy4P1aw-158" value="" style="endArrow=classic;html=1;rounded=0;exitX=0.5;exitY=1;exitDx=0;exitDy=0;entryX=0.5;entryY=0;entryDx=0;entryDy=0;" edge="1" parent="1" source="FVjMAxVA79Mbzfy4P1aw-8" target="FVjMAxVA79Mbzfy4P1aw-159">
          <mxGeometry width="50" height="50" relative="1" as="geometry">
            <mxPoint x="1050" y="690" as="sourcePoint" />
            <mxPoint x="1140" y="750" as="targetPoint" />
            <Array as="points">
              <mxPoint x="700" y="560" />
              <mxPoint x="850" y="560" />
              <mxPoint x="850" y="640" />
              <mxPoint x="1150" y="640" />
            </Array>
          </mxGeometry>
        </mxCell>
        <mxCell id="FVjMAxVA79Mbzfy4P1aw-159" value="User click any of the following items:&lt;br&gt;LOGO&lt;br&gt;ID LACE" style="rhombus;whiteSpace=wrap;html=1;" vertex="1" parent="1">
          <mxGeometry x="1025" y="750" width="250" height="190" as="geometry" />
        </mxCell>
        <mxCell id="FVjMAxVA79Mbzfy4P1aw-161" value="" style="endArrow=classic;html=1;rounded=0;exitX=0.5;exitY=1;exitDx=0;exitDy=0;" edge="1" parent="1" source="FVjMAxVA79Mbzfy4P1aw-159">
          <mxGeometry width="50" height="50" relative="1" as="geometry">
            <mxPoint x="1220" y="1030" as="sourcePoint" />
            <mxPoint x="1150" y="1050" as="targetPoint" />
          </mxGeometry>
        </mxCell>
        <mxCell id="FVjMAxVA79Mbzfy4P1aw-165" value="Input quantity of items" style="shape=parallelogram;perimeter=parallelogramPerimeter;whiteSpace=wrap;html=1;fixedSize=1;" vertex="1" parent="1">
          <mxGeometry x="1065" y="1050" width="160" height="60" as="geometry" />
        </mxCell>
        <mxCell id="FVjMAxVA79Mbzfy4P1aw-166" value="" style="endArrow=classic;html=1;rounded=0;" edge="1" parent="1" source="FVjMAxVA79Mbzfy4P1aw-165" target="FVjMAxVA79Mbzfy4P1aw-169">
          <mxGeometry width="50" height="50" relative="1" as="geometry">
            <mxPoint x="1100" y="1280" as="sourcePoint" />
            <mxPoint x="1145" y="1200" as="targetPoint" />
          </mxGeometry>
        </mxCell>
        <mxCell id="FVjMAxVA79Mbzfy4P1aw-169" value="Valid quantity?" style="rhombus;whiteSpace=wrap;html=1;" vertex="1" parent="1">
          <mxGeometry x="1070" y="1205" width="150" height="80" as="geometry" />
        </mxCell>
        <mxCell id="FVjMAxVA79Mbzfy4P1aw-176" value="" style="endArrow=none;html=1;rounded=0;exitX=0.5;exitY=0;exitDx=0;exitDy=0;entryX=0.5;entryY=1;entryDx=0;entryDy=0;" edge="1" parent="1" source="FVjMAxVA79Mbzfy4P1aw-139" target="FVjMAxVA79Mbzfy4P1aw-169">
          <mxGeometry width="50" height="50" relative="1" as="geometry">
            <mxPoint x="1100" y="1340" as="sourcePoint" />
            <mxPoint x="1150" y="1290" as="targetPoint" />
            <Array as="points">
              <mxPoint x="940" y="1360" />
              <mxPoint x="1145" y="1360" />
            </Array>
          </mxGeometry>
        </mxCell>
        <mxCell id="FVjMAxVA79Mbzfy4P1aw-177" value="" style="endArrow=classic;html=1;rounded=0;exitX=1;exitY=0.5;exitDx=0;exitDy=0;entryX=0;entryY=0;entryDx=40;entryDy=40;entryPerimeter=0;" edge="1" parent="1" source="FVjMAxVA79Mbzfy4P1aw-169" target="FVjMAxVA79Mbzfy4P1aw-179">
          <mxGeometry width="50" height="50" relative="1" as="geometry">
            <mxPoint x="1140" y="1360" as="sourcePoint" />
            <mxPoint x="1260" y="1310" as="targetPoint" />
            <Array as="points">
              <mxPoint x="1260" y="1245" />
            </Array>
          </mxGeometry>
        </mxCell>
        <mxCell id="FVjMAxVA79Mbzfy4P1aw-178" value="No" style="edgeLabel;html=1;align=center;verticalAlign=middle;resizable=0;points=[];" vertex="1" connectable="0" parent="FVjMAxVA79Mbzfy4P1aw-177">
          <mxGeometry x="-0.0966" y="1" relative="1" as="geometry">
            <mxPoint as="offset" />
          </mxGeometry>
        </mxCell>
        <mxCell id="FVjMAxVA79Mbzfy4P1aw-179" value="Invalid Quantity" style="shape=display;whiteSpace=wrap;html=1;" vertex="1" parent="1">
          <mxGeometry x="1220" y="1150" width="80" height="40" as="geometry" />
        </mxCell>
        <mxCell id="FVjMAxVA79Mbzfy4P1aw-180" value="" style="endArrow=classic;html=1;rounded=0;exitX=0;exitY=0;exitDx=40;exitDy=0;exitPerimeter=0;entryX=1;entryY=0.5;entryDx=0;entryDy=0;" edge="1" parent="1" source="FVjMAxVA79Mbzfy4P1aw-179" target="FVjMAxVA79Mbzfy4P1aw-165">
          <mxGeometry width="50" height="50" relative="1" as="geometry">
            <mxPoint x="1240" y="1150" as="sourcePoint" />
            <mxPoint x="1290" y="1100" as="targetPoint" />
            <Array as="points">
              <mxPoint x="1260" y="1080" />
            </Array>
          </mxGeometry>
        </mxCell>
      </root>
    </mxGraphModel>
  </diagram>
</mxfile>
